<?xml version="1.0" standalone="no"?>
<!DOCTYPE svg PUBLIC "-//W3C//DTD SVG 20010904//EN"
 "http://www.w3.org/TR/2001/REC-SVG-20010904/DTD/svg10.dtd">
<svg version="1.0" xmlns="http://www.w3.org/2000/svg"
 width="900.000000pt" height="900.000000pt" viewBox="0 0 900.000000 900.000000"
 preserveAspectRatio="xMidYMid meet">
<metadata>
Created by potrace 1.11, written by Peter Selinger 2001-2013
</metadata>
<g transform="translate(0.000000,900.000000) scale(0.100000,-0.100000)"
fill="#000000" stroke="none">
<path d="M6260 5960 c-41 -7 -43 -8 -142 -83 -65 -48 -79 -64 -89 -100 -7 -23
-25 -58 -41 -78 -15 -20 -28 -44 -28 -54 0 -9 -24 -39 -54 -66 -29 -26 -66
-73 -82 -104 -24 -46 -40 -62 -96 -95 -63 -38 -72 -40 -147 -40 -45 0 -100 -7
-129 -16 l-50 -16 -45 30 c-24 17 -47 38 -51 47 -4 11 -13 14 -31 9 -14 -4
-25 -2 -25 4 0 6 -17 9 -37 7 -21 -1 -41 2 -45 9 -6 8 -8 8 -8 -1 0 -9 -13
-11 -47 -6 -37 5 -44 3 -38 -7 6 -10 4 -12 -9 -7 -10 4 -24 1 -32 -8 -9 -8
-24 -15 -34 -15 -10 0 -20 -7 -24 -15 -3 -8 -13 -15 -23 -15 -14 0 -15 -2 -4
-9 11 -7 11 -10 -1 -17 -17 -10 -32 -43 -29 -62 1 -8 -3 -20 -9 -27 -6 -8 -12
-44 -12 -81 0 -53 4 -71 21 -93 12 -14 28 -40 36 -57 13 -28 12 -37 -4 -80
-11 -29 -17 -63 -14 -83 5 -31 0 -39 -81 -120 -48 -48 -104 -112 -125 -142
-31 -46 -42 -54 -72 -57 -78 -6 -166 -25 -220 -48 -39 -16 -78 -24 -116 -24
-97 0 -182 -25 -297 -84 -65 -33 -122 -56 -141 -56 -17 0 -35 -3 -39 -7 -7 -7
-58 -11 -199 -15 -36 -1 -51 4 -62 18 -12 17 -27 19 -167 18 -184 0 -266 -18
-456 -96 -115 -48 -133 -53 -193 -50 -47 1 -87 -4 -135 -20 -51 -16 -90 -21
-149 -20 -74 2 -192 -16 -247 -37 -37 -14 -56 -43 -74 -110 -18 -72 -12 -99
31 -127 35 -23 99 -14 154 20 23 15 66 31 94 36 29 5 66 13 82 19 17 5 56 12
87 16 32 4 77 16 100 29 36 19 50 21 88 13 76 -14 473 -2 571 19 l85 17 94
-28 c155 -45 201 -55 270 -55 61 -1 64 -2 45 -16 -16 -12 -37 -15 -97 -11
-107 7 -111 3 -109 -106 1 -53 -2 -87 -8 -87 -6 0 -27 -15 -47 -32 -37 -33
-38 -33 -148 -33 -127 -1 -172 -15 -272 -82 -92 -63 -119 -73 -220 -88 -81
-13 -100 -13 -132 -1 -20 8 -61 16 -90 19 -47 4 -55 1 -86 -27 -51 -46 -57
-99 -18 -149 16 -20 39 -63 52 -94 12 -32 26 -68 31 -81 10 -25 35 -37 102
-47 43 -7 49 -5 77 23 17 17 33 44 36 61 4 17 21 41 44 59 34 28 41 30 76 21
21 -5 95 -9 164 -9 138 -1 202 13 266 56 36 25 44 26 158 25 106 -1 125 1 154
19 29 18 39 19 68 10 117 -39 518 69 676 181 17 13 48 23 68 25 53 3 93 27
137 80 47 57 154 144 241 197 221 133 364 249 377 305 12 55 97 184 171 260
82 84 99 121 90 192 -7 53 -1 62 58 83 25 8 42 23 54 47 9 19 41 51 71 71 119
82 162 142 217 303 19 55 40 93 71 128 23 27 43 55 43 62 0 7 11 19 25 26 14
8 48 38 75 67 27 29 70 63 95 75 39 19 45 26 43 48 -3 24 -6 25 -55 23 -29 -1
-53 0 -53 3 0 3 16 26 35 51 39 51 42 67 21 108 -8 16 -13 40 -11 55 5 42 41
101 74 121 31 18 68 66 59 75 -8 7 -149 11 -188 4z"/>
<path d="M6520 5131 c-78 -16 -156 -75 -192 -146 -12 -24 -23 -67 -26 -106 -4
-57 -1 -75 22 -125 48 -105 117 -154 228 -162 229 -16 372 225 247 419 -37 58
-90 96 -160 115 -58 15 -66 15 -119 5z"/>
</g>
</svg>
